PathFileType	4	(X/Y/Z)	s10c0402.trc
DataRate	CameraRate	NumFrames	NumMarkers	Units	OrigDataRate	OrigDataStartFrame	OrigNumFrames
200	200	4	49	mm	200	1250	2000
Frame#	Time	racr			lacr			c7			jug			rlel			rdr			llel			ldr			s2			lic			ric			lasi			rasi			rpsi			lpsi			rgt			lgt			rth1			rth2			rth3			rth4			rlfc			rmfc			rsh1			rsh2			rsh3			rsh4			rlmal			rmmal			rcal			rtoe			rmt5			lth1			lth2			lth4			lth3			llfc			lmfc			llmal			lcal			lmt5			lsh1			lsh2			lsh3			lsh4			ltoe			SBIKE			LBIKE			RBIKE			
		X1	Y1	Z1	X2	Y2	Z2	X3	Y3	Z3	X4	Y4	Z4	X5	Y5	Z5	X6	Y6	Z6	X7	Y7	Z7	X8	Y8	Z8	X9	Y9	Z9	X10	Y10	Z10	X11	Y11	Z11	X12	Y12	Z12	X13	Y13	Z13	X14	Y14	Z14	X15	Y15	Z15	X16	Y16	Z16	X17	Y17	Z17	X18	Y18	Z18	X19	Y19	Z19	X20	Y20	Z20	X21	Y21	Z21	X22	Y22	Z22	X23	Y23	Z23	X24	Y24	Z24	X25	Y25	Z25	X26	Y26	Z26	X27	Y27	Z27	X28	Y28	Z28	X29	Y29	Z29	X30	Y30	Z30	X31	Y31	Z31	X32	Y32	Z32	X33	Y33	Z33	X34	Y34	Z34	X35	Y35	Z35	X36	Y36	Z36	X37	Y37	Z37	X38	Y38	Z38	X39	Y39	Z39	X40	Y40	Z40	X41	Y41	Z41	X42	Y42	Z42	X43	Y43	Z43	X44	Y44	Z44	X45	Y45	Z45	X46	Y46	Z46	X47	Y47	Z47	X48	Y48	Z48	X49	Y49	Z49	
1250	6.2500	670.841724	1360.078933	-106.755356	663.073661	1298.186483	-387.443247	655.425807	1341.121639	-243.084007	644.653401	1193.783663	-215.205599	588.693053	1114.120449	24.806613	629.280520	908.687824	-35.046948	511.385607	1083.628091	-519.281116	621.323177	913.349839	-434.534379	120.640475	1157.355580	-212.684176	269.158794	1143.887109	-369.010363	308.722000	1161.476768	-72.481302	280.446674	1062.830730	-341.442993	305.820299	1066.051365	-90.051724	176.414714	1205.887091	-168.610186	168.849233	1211.735656	-275.906005	203.497881	1056.685496	-30.398860	142.071597	1030.873802	-399.508008	269.086638	913.766391	-12.074238	326.865740	848.527586	-30.307334	344.496736	765.147860	-36.701031	357.389082	867.333950	-39.714505	385.029526	663.806757	-56.021731	368.659216	663.483492	-172.509399	284.877616	608.221038	-19.242128	229.443289	540.772776	-33.963377	149.146179	508.438888	-34.629018	246.210835	522.416017	-63.148268	58.115471	451.345321	-47.485412	81.434351	445.110725	-129.430411	26.335049	495.884437	-95.063810	68.269849	254.914922	-105.195276	25.592071	326.086300	-40.724698	215.354579	922.361906	-420.206458	291.750079	881.280707	-417.030159	316.573134	907.158221	-410.355307	337.073993	805.108382	-415.931669	423.841907	715.047459	-402.077668	437.003643	709.158791	-287.253888	226.151204	385.270715	-388.557220	164.585126	357.889877	-343.366804	329.433488	291.796785	-405.728421	354.385507	610.417468	-426.452097	337.205733	526.431750	-408.611253	277.763268	460.610429	-405.952690	361.005854	519.485032	-379.715442	413.822850	315.227630	-349.309066	-180.843870	823.224555	-211.001369	-103.943410	80.475933	-418.379438	-103.921991	80.553830	-18.385057	
1251	6.2550	672.521587	1360.007782	-106.445243	661.167750	1298.544832	-387.229988	654.955387	1341.268662	-242.915788	644.281609	1194.035831	-214.719437	590.034069	1114.279442	25.205492	628.890676	908.707911	-35.674042	509.826097	1083.890976	-518.535767	621.264563	913.455251	-434.552222	120.469691	1156.768446	-216.107616	271.871712	1142.914455	-369.733824	306.288850	1161.364425	-72.455303	282.813051	1061.710444	-342.524886	304.050379	1066.355841	-91.680695	174.944824	1205.184646	-171.295027	169.071146	1210.454991	-277.781859	202.106448	1056.263076	-32.551375	143.947996	1029.208642	-401.146855	269.508686	915.033560	-13.593340	328.916169	850.898542	-31.398752	348.024777	767.944384	-37.725440	359.084800	870.250346	-40.567869	391.220439	667.528646	-57.423806	375.462898	669.923511	-173.914813	291.119269	612.419711	-20.823113	233.711462	546.191850	-35.562359	153.054576	515.614732	-35.419332	249.937841	527.961209	-65.389298	60.333536	462.079362	-47.542315	83.329992	455.424264	-129.687281	28.678153	506.732150	-95.379610	70.050942	265.594929	-105.314598	27.549485	336.836636	-40.829290	215.485609	918.753865	-420.876255	290.293185	874.920196	-416.851302	316.105556	900.031677	-410.265618	332.898057	797.142539	-415.023748	416.365254	702.984363	-399.537844	428.976235	696.998632	-286.111191	222.974617	373.070887	-387.918397	161.651322	345.252648	-342.925855	327.050828	280.977759	-405.603094	348.386133	597.459562	-423.942292	331.983142	513.329578	-405.656324	273.365196	446.606695	-404.459732	355.345861	506.858413	-376.266032	411.381769	305.019203	-349.173096	-180.883349	823.175565	-211.147295	-103.961388	80.442830	-418.395934	-103.934005	80.560818	-18.382935	
1252	6.2600	674.133034	1359.890438	-106.112868	659.247055	1299.145300	-386.885524	654.470298	1341.411304	-242.743447	644.084150	1194.426242	-214.137983	591.364912	1114.409038	25.535247	628.890200	908.784507	-35.712985	508.410664	1084.064275	-517.748052	621.232772	913.595081	-434.514644	120.470877	1156.273419	-218.328690	274.409630	1141.688262	-370.114011	303.915622	1160.977157	-72.588666	285.248020	1060.508660	-343.592835	302.441385	1066.623149	-93.366226	175.178601	1203.074718	-171.658488	169.775509	1209.695253	-280.403448	200.694150	1055.692702	-34.629289	145.905598	1027.162557	-402.691985	270.153113	916.164663	-15.004072	330.815436	853.282146	-32.447790	351.372845	770.628916	-38.557056	360.386613	872.665422	-41.795078	397.457766	671.171135	-58.461818	379.804839	674.250569	-175.601268	297.105735	616.722892	-22.399105	238.231458	552.075325	-37.090063	156.782865	522.864105	-36.091744	254.438983	534.319017	-67.098491	62.809119	472.664272	-47.853596	85.377978	465.752868	-129.794887	31.680465	517.736483	-95.827531	72.710404	276.435608	-105.320582	30.076604	347.652683	-40.798743	216.251177	914.978337	-421.757725	288.968054	868.291834	-416.585979	315.647926	892.514679	-410.065219	328.642554	788.911503	-414.057269	408.713362	691.152793	-396.782469	420.419981	684.752370	-285.020048	219.362882	361.896760	-387.887814	158.252437	333.281480	-342.451509	324.189144	270.172292	-405.379667	341.627583	586.056949	-421.796374	326.411105	501.634277	-403.508423	269.623527	433.544299	-402.140027	349.693041	495.738711	-373.868070	408.400926	294.812334	-349.036589	-180.808441	823.256095	-210.910769	-103.945451	80.470985	-418.361839	-103.917152	80.539195	-18.378524	
1253	6.2650	675.728446	1359.780254	-105.793725	657.325894	1299.730115	-386.511690	653.816849	1341.559051	-242.501536	644.404483	1194.787474	-211.956972	592.659413	1114.478922	25.820970	628.826090	908.801301	-35.786317	507.145589	1084.290781	-516.850875	621.198618	913.730473	-434.509621	120.231635	1154.821554	-220.680012	277.135464	1140.515932	-370.675424	301.722332	1160.191797	-72.499612	287.833927	1059.172066	-344.522290	300.896874	1066.625756	-94.420162	174.017523	1202.118747	-174.415251	170.957187	1208.166425	-282.887358	199.301366	1054.875638	-36.740732	148.115450	1024.714842	-404.319008	270.919106	917.559374	-16.129691	332.680093	855.477249	-33.332568	354.595270	773.176780	-39.334518	362.820663	876.471210	-42.194963	403.476050	674.741205	-59.586020	384.083812	678.430855	-177.225118	303.052810	621.177205	-24.067572	242.394774	557.854284	-38.701208	160.481206	530.403180	-36.850406	257.881733	540.086895	-69.082322	65.533383	483.391509	-48.090776	87.582739	476.254202	-130.198039	33.917463	528.188578	-95.710938	76.171493	287.348868	-105.514215	33.297941	358.382791	-40.835109	216.916251	910.806818	-422.313759	287.801888	861.351571	-416.400392	315.298739	884.598730	-409.873091	324.920892	780.675537	-413.410521	400.875343	679.976998	-394.213622	412.808137	672.929290	-283.044202	215.640827	350.154857	-386.416889	154.455605	321.787561	-341.962778	320.720258	259.690379	-405.182566	333.838010	576.762946	-419.965336	320.163211	492.590866	-402.846138	264.760243	423.188945	-401.027324	344.055239	486.510791	-373.253002	404.823740	284.622882	-348.807555	-180.814056	823.223151	-210.963382	-103.926940	80.468922	-418.364985	-103.917686	80.541727	-18.378767	
